<svg xmlns="http://www.w3.org/2000/svg" xmlns:xlink="http://www.w3.org/1999/xlink" width="200" fill="none" zoomAndPan="magnify" viewBox="0 0 375 374.999991" height="100" preserveAspectRatio="xMidYMid meet" version="1.0"><defs><g/></defs><g fill="#cae8ff" fill-opacity="0.6"><g transform="translate(23.415216, 328.847706)"><g><path d="M 40.785156 -120.757812 L 40.785156 -210.863281 C 40.785156 -211.929688 39.71875 -213.261719 37.855469 -213.261719 L 2.933594 -213.261719 C 1.332031 -213.261719 0 -211.929688 0 -210.863281 L 0 -120.757812 Z M 159.414062 -213.261719 L 124.492188 -213.261719 C 122.890625 -213.261719 121.558594 -211.929688 121.558594 -210.863281 L 121.558594 -79.707031 L 40.785156 -79.707031 L 40.785156 -79.972656 L 0 -79.972656 L 0 -2.398438 C 0 -1.332031 1.332031 0 2.933594 0 L 37.855469 0 C 39.71875 0 40.785156 -1.332031 40.785156 -2.398438 L 40.785156 -39.988281 L 121.558594 -39.988281 L 121.558594 -2.398438 C 121.558594 -1.332031 122.890625 0 124.492188 0 L 159.414062 0 C 161.277344 0 162.34375 -1.332031 162.34375 -2.398438 L 162.34375 -210.863281 C 162.34375 -211.929688 161.277344 -213.261719 159.414062 -213.261719 Z M 159.414062 -213.261719 "/></g></g></g><g fill="#12229d" fill-opacity="1"><g transform="translate(12.504172, 320.625644)"><g><path d="M 40.785156 -120.757812 L 40.785156 -210.863281 C 40.785156 -211.929688 39.71875 -213.261719 37.855469 -213.261719 L 2.933594 -213.261719 C 1.332031 -213.261719 0 -211.929688 0 -210.863281 L 0 -120.757812 Z M 159.414062 -213.261719 L 124.492188 -213.261719 C 122.890625 -213.261719 121.558594 -211.929688 121.558594 -210.863281 L 121.558594 -79.707031 L 40.785156 -79.707031 L 40.785156 -79.972656 L 0 -79.972656 L 0 -2.398438 C 0 -1.332031 1.332031 0 2.933594 0 L 37.855469 0 C 39.71875 0 40.785156 -1.332031 40.785156 -2.398438 L 40.785156 -39.988281 L 121.558594 -39.988281 L 121.558594 -2.398438 C 121.558594 -1.332031 122.890625 0 124.492188 0 L 159.414062 0 C 161.277344 0 162.34375 -1.332031 162.34375 -2.398438 L 162.34375 -210.863281 C 162.34375 -211.929688 161.277344 -213.261719 159.414062 -213.261719 Z M 159.414062 -213.261719 "/></g></g></g><g fill="#cae8ff" fill-opacity="0.6"><g transform="translate(194.012283, 328.847706)"><g><path d="M 170.074219 -4 L 84.503906 -104.765625 L 169.277344 -209.261719 C 171.140625 -211.128906 169.808594 -213.261719 166.875 -213.261719 L 123.425781 -213.261719 C 122.890625 -213.261719 121.292969 -212.726562 121.027344 -212.460938 L 40.785156 -113.828125 L 40.785156 -210.863281 C 40.785156 -211.929688 39.71875 -213.261719 38.121094 -213.261719 L 2.933594 -213.261719 C 1.332031 -213.261719 0 -211.929688 0 -210.863281 L 0 -13.0625 C 0 -13.0625 51.980469 -71.976562 57.3125 -77.574219 L 119.425781 -0.800781 C 119.691406 -0.53125 121.292969 0 121.824219 0 L 167.675781 0 C 170.34375 0 171.675781 -1.867188 170.074219 -4 Z M 170.074219 -4 "/></g></g></g><g fill="#233dff" fill-opacity="1"><g transform="translate(183.10124, 320.625644)"><g><path d="M 170.074219 -4 L 84.503906 -104.765625 L 169.277344 -209.261719 C 171.140625 -211.128906 169.808594 -213.261719 166.875 -213.261719 L 123.425781 -213.261719 C 122.890625 -213.261719 121.292969 -212.726562 121.027344 -212.460938 L 40.785156 -113.828125 L 40.785156 -210.863281 C 40.785156 -211.929688 39.71875 -213.261719 38.121094 -213.261719 L 2.933594 -213.261719 C 1.332031 -213.261719 0 -211.929688 0 -210.863281 L 0 -13.0625 C 0 -13.0625 51.980469 -71.976562 57.3125 -77.574219 L 119.425781 -0.800781 C 119.691406 -0.53125 121.292969 0 121.824219 0 L 167.675781 0 C 170.34375 0 171.675781 -1.867188 170.074219 -4 Z M 170.074219 -4 "/></g></g></g></svg>